<?xml version="1.0" encoding="UTF-8" standalone="no"?>
<svg
   xmlns:dc="http://purl.org/dc/elements/1.1/"
   xmlns:cc="http://creativecommons.org/ns#"
   xmlns:rdf="http://www.w3.org/1999/02/22-rdf-syntax-ns#"
   xmlns:svg="http://www.w3.org/2000/svg"
   xmlns="http://www.w3.org/2000/svg"
   xmlns:xlink="http://www.w3.org/1999/xlink"
   xmlns:sodipodi="http://sodipodi.sourceforge.net/DTD/sodipodi-0.dtd"
   xmlns:inkscape="http://www.inkscape.org/namespaces/inkscape"
   version="1.1"
   id="layer_1"
   x="0px"
   y="0px"
   width="1400px"
   height="1400px"
   viewBox="0 0 1400 1400"
   style="enable-background:new 0 0 1400 1400;"
   xml:space="preserve"
   sodipodi:docname="vinyl 4.svg"
   inkscape:export-filename="/home/jose/CDT/Proyectos/FullStackUTN/ProyectoFinal/vinyl 4.png"
   inkscape:export-xdpi="96"
   inkscape:export-ydpi="96"
   inkscape:version="1.0.2 (e86c870879, 2021-01-15)"><metadata
   id="metadata382"><rdf:RDF><cc:Work
       rdf:about=""><dc:format>image/svg+xml</dc:format><dc:type
         rdf:resource="http://purl.org/dc/dcmitype/StillImage" /></cc:Work></rdf:RDF></metadata><defs
   id="defs380">
	
	
	
	

		
		
		
		
	
		
		
		
		
		
		
		
		
		
		
		
		
		
		
		
		
		
		
		
		
		
		
		
		
		
		
		
		
		
		
		
		
		
		
		
		
		
		
		
		
		
		
		
		
		
	
			<defs
   id="defs244">
				<path
   id="SVGID_1_"
   d="m 794.1,873.7 c -95.9,52 -215.8,16.4 -267.8,-79.5 -52,-95.9 -16.4,-215.8 79.5,-267.8 95.9,-52 215.8,-16.4 267.8,79.5 52.1,95.9 16.4,215.8 -79.5,267.8" />
			</defs>
			<clipPath
   id="SVGID_2_">
				<use
   xlink:href="#SVGID_1_"
   style="overflow:visible"
   id="use246"
   x="0"
   y="0"
   width="100%"
   height="100%" />
			</clipPath>
			
		</defs><sodipodi:namedview
   pagecolor="#ffffff"
   bordercolor="#666666"
   borderopacity="1"
   objecttolerance="10"
   gridtolerance="10"
   guidetolerance="10"
   inkscape:pageopacity="0"
   inkscape:pageshadow="2"
   inkscape:window-width="922"
   inkscape:window-height="998"
   id="namedview378"
   showgrid="false"
   inkscape:zoom="0.63357143"
   inkscape:cx="355.30706"
   inkscape:cy="540.72807"
   inkscape:window-x="967"
   inkscape:window-y="51"
   inkscape:window-maximized="0"
   inkscape:current-layer="g371" />
<style
   type="text/css"
   id="style215">
	.st0{fill:#F6E9A7;}
	.st1{fill:#D8CA91;}
	.st2{fill:#5CA680;}
	.st3{fill:#F16122;}
	.st4{fill:#EE443B;}
	.st5{fill:#1E1717;}
	.st6{fill:#FFFFFF;}
	.st7{fill:#382D2D;}
	.st8{clip-path:url(#SVGID_2_);}
	.st9{fill:#F1F1F1;}
	.st10{fill:none;}
	.st11{fill:#261E1E;}
</style>
<rect
   x="275.79999"
   y="0"
   class="st2"
   width="297.70001"
   height="1400"
   id="rect221"
   style="fill:#8ec07c;fill-opacity:1" /><rect
   x="677.70001"
   y="0"
   class="st3"
   width="223.3"
   height="1400"
   id="rect223"
   style="fill:#fe8019;fill-opacity:1" /><rect
   x="900.90002"
   y="0"
   class="st4"
   width="223.3"
   height="1400"
   id="rect225"
   style="fill:#fb4934;fill-opacity:1" /><rect
   x="573.5"
   y="0"
   class="st0"
   width="104.2"
   height="1400"
   id="rect227"
   style="fill:#fabd2f;fill-opacity:1" /><path
   class="st0"
   d="M 987.9,1231.2 C 694.5,1390.2 327.8,1281.3 168.7,987.9 9.8,694.6 118.7,327.8 412,168.8 c 293.4,-159 660.1,-50.1 819.2,243.3 159,293.3 50.1,660.1 -243.3,819.1"
   id="path231"
   style="fill:#fabd2f;fill-opacity:1" /><path
   class="st5"
   d="M 972.9,1203.5 C 694.8,1354.2 347.2,1251 196.4,972.9 45.7,694.8 149,347.2 427.1,196.5 705.1,45.7 1052.8,149 1203.5,427 c 150.8,278.1 47.5,625.8 -230.6,776.5"
   id="path233"
   style="fill:#282828;fill-opacity:1" /><path
   class="st5"
   d="M 958.1,1176.1 C 695.2,1318.6 366.5,1221 224,958.1 81.4,695.1 179,366.4 441.9,223.9 704.8,81.4 1033.5,179 1176,441.9 c 142.6,263 45,591.6 -217.9,734.2"
   id="path235"
   style="fill:#282828;fill-opacity:1" /><path
   class="st6"
   d="m 221.1,959.6 c -35,-64.7 -56.4,-134.2 -63.4,-206.8 -6.8,-70.1 0,-140 20.1,-207.9 20.1,-67.8 52.6,-130.1 96.6,-185.1 45.5,-57 101.4,-103.6 166,-138.7 64.6,-35 134.2,-56.4 206.8,-63.4 70.1,-6.8 140,0 207.8,20.1 67.8,20.1 130.1,52.6 185.1,96.6 57,45.5 103.6,101.4 138.7,166 35,64.6 56.4,134.2 63.4,206.8 6.8,70.1 0,140 -20.1,207.8 -20.1,67.8 -52.6,130.1 -96.6,185.1 -45.5,57 -101.4,103.6 -166,138.7 -64.6,35 -134.2,56.4 -206.8,63.4 -70.1,6.8 -140,0 -207.8,-20.1 -67.8,-20.1 -130.1,-52.6 -185.1,-96.6 -57,-45.4 -103.6,-101.3 -138.7,-165.9 m 950.7,-515.3 c -141,-260.1 -467.4,-357 -727.5,-216 -260.1,141 -357,467.4 -216,727.5 141,260.1 467.4,357 727.5,216 260.1,-141 357,-467.4 216,-727.5"
   id="path237"
   style="fill:#ebdbb2;fill-opacity:1" /><path
   class="st7"
   d="M 835.1,949.2 C 697.4,1023.8 525.4,972.7 450.7,835.1 376.1,697.4 427.2,525.4 564.8,450.7 c 137.7,-74.6 309.7,-23.5 384.4,114.1 74.7,137.7 23.6,309.8 -114.1,384.4"
   id="path239"
   style="fill:#3c3839;fill-opacity:1" /><path
   class="st0"
   d="M 800.3,885 C 698.1,940.4 570.4,902.5 515.1,800.3 459.7,698.1 497.6,570.4 599.8,515.1 702,459.7 829.7,497.7 885,599.8 940.3,701.9 902.4,829.6 800.3,885"
   id="path241"
   style="fill:#ebdbb2;fill-opacity:1" /><g
   class="st8"
   clip-path="url(#SVGID_2_)"
   id="g257">
				
					<rect
   x="464.10001"
   y="567.5"
   transform="matrix(0.9848,-0.1736,0.1736,0.9848,-96.2839,128.2561)"
   class="st2"
   width="441.70001"
   height="93.900002"
   id="rect249"
   style="fill:#8ec07c;fill-opacity:1" />
				
					<rect
   x="484.10001"
   y="692.5"
   transform="matrix(0.9848,-0.1736,0.1736,0.9848,-115.6514,133.4442)"
   class="st3"
   width="441.70001"
   height="70.400002"
   id="rect251"
   style="fill:#fe8019;fill-opacity:1" />
				
					<rect
   x="496.29999"
   y="761.90002"
   transform="matrix(0.9848,-0.1737,0.1737,0.9848,-127.5302,136.6476)"
   class="st4"
   width="441.70001"
   height="70.400002"
   id="rect253"
   style="fill:#fb4934;fill-opacity:1" />
				
					<rect
   x="475.10001"
   y="660.40002"
   transform="matrix(0.9848,-0.1737,0.1737,0.9848,-107.0035,131.1851)"
   class="st0"
   width="441.70001"
   height="32.900002"
   id="rect255"
   style="fill:#fabd2f;fill-opacity:1" />
			</g><path
   class="st5"
   d="m 708,714.7 c -8.1,4.4 -18.2,1.4 -22.6,-6.7 -4.4,-8.1 -1.4,-18.2 6.7,-22.6 8.1,-4.4 18.2,-1.4 22.6,6.7 4.4,8 1.4,18.2 -6.7,22.6"
   id="path261" /><path
   class="st9"
   d="m 703.8,707.1 c -3.9,2.1 -8.8,0.7 -10.9,-3.2 -2.1,-3.9 -0.7,-8.8 3.2,-10.9 3.9,-2.1 8.8,-0.7 10.9,3.2 2.2,3.9 0.7,8.7 -3.2,10.9"
   id="path263"
   style="fill:#ebdbb2;fill-opacity:1" /><path
   class="st10"
   d="m 634.3,327.3 2.3,13 c 55.1,-9.8 112.1,-6.7 167.4,9.7 93.5,27.8 170.6,90.3 217,176 19,35.1 32,72.4 38.7,110.6 l 13,-2.3 c -6.9,-39.1 -20.1,-77.8 -40,-114.6 C 953.2,373 790.2,299.9 634.3,327.3 Z"
   id="path265" /><path
   class="st10"
   d="m 739.7,1107.4 c -52.7,5.1 -105.2,0 -156.2,-15.1 -50.9,-15.1 -97.7,-39.5 -139.1,-72.6 C 401.6,985.5 366.5,943.6 340.2,895 319,855.8 304.5,814.3 296.9,771.1 l -15.6,2.8 c 7.7,44 22.5,87.4 45,128.8 89.3,164.8 272.5,246.9 447.7,216.1 l -2.8,-15.6 c -10.5,1.7 -21,3.2 -31.5,4.2 z"
   id="path267" /><path
   class="st10"
   d="m 810,329.5 c 99,29.4 180.6,95.6 229.8,186.3 20.1,37.2 33.9,76.6 41,117 l 14.2,-2.5 c -7.3,-41.5 -21.3,-82.5 -42.4,-121.5 C 968.3,353.4 795.6,275.9 630.3,304.9 l 2.5,14.2 c 58.4,-10.3 118.8,-7 177.2,10.4 z"
   id="path269" /><path
   class="st10"
   d="m 769.7,1095.1 -2.5,-14.2 C 708.9,1091.2 648.5,1088 590,1070.6 491,1041.2 409.4,975 360.2,884.3 c -20.1,-37.2 -33.9,-76.6 -41,-117 l -14.2,2.5 c 7.3,41.5 21.3,82.5 42.4,121.5 84.2,155.3 257,232.8 422.3,203.8 z"
   id="path271" /><path
   class="st10"
   d="m 626.2,281.2 2.8,15.6 c 10.4,-1.8 20.9,-3.3 31.4,-4.3 52.7,-5.1 105.2,0 156.2,15.1 50.9,15.1 97.7,39.5 139.1,72.6 42.8,34.2 77.9,76.1 104.2,124.7 21.2,39.2 35.7,80.7 43.3,123.9 l 15.6,-2.8 c -7.7,-44 -22.5,-87.4 -45,-128.8 C 984.5,332.6 801.3,250.5 626.2,281.2 Z"
   id="path273" /><path
   class="st10"
   d="M 1012.8,644.8 C 1007,612 996,579.5 979.2,548.6 912.5,425.5 775.7,364.2 644.8,387.1 L 700,700 Z"
   id="path275" /><path
   class="st10"
   d="m 658,268.6 c 55.8,-5.4 111.4,0 165.3,16 53.9,16 103.5,41.9 147.3,76.8 45.3,36.2 82.4,80.6 110.3,132 22.5,41.5 37.9,85.5 45.9,131.2 l 43.6,-7.7 c -8.7,-49.4 -25.3,-98.2 -50.5,-144.7 C 1019.6,287.2 813.9,195 617,229.5 l 7.7,43.6 c 11,-1.9 22.1,-3.4 33.3,-4.5 z"
   id="path277" /><path
   class="st10"
   d="m 596.1,1050 c -93.5,-27.8 -170.6,-90.3 -217,-176 -19,-35.1 -32,-72.4 -38.7,-110.6 l -13,2.3 c 6.9,39.1 20,77.8 40,114.6 79.5,146.6 242.5,219.7 398.4,192.3 l -2.3,-13 c -55.2,9.9 -112.2,6.8 -167.4,-9.6 z"
   id="path279" /><path
   class="st10"
   d="M 607.3,1012.3 C 523.9,987.5 455.1,931.8 413.7,855.3 396.7,824 385.2,790.7 379.1,756.7 l -10.7,1.9 c 6.1,34.8 17.8,69.2 35.6,102 70.7,130.4 215.7,195.4 354.5,171 l -1.9,-10.7 c -49.2,8.8 -100.1,6 -149.3,-8.6 z"
   id="path281" /><path
   class="st10"
   d="M 755.2,1012.8 700,700 387.2,755.2 c 5.8,32.8 16.8,65.3 33.6,96.2 66.7,123.1 203.5,184.4 334.4,161.4 z"
   id="path283" /><path
   class="st10"
   d="m 783,1170.5 -7.7,-43.6 c -11,1.9 -22.1,3.5 -33.3,4.5 -55.8,5.4 -111.4,0 -165.3,-16 -53.9,-16 -103.5,-41.9 -147.3,-76.8 C 384.1,1002.4 347,958 319.1,906.6 296.6,865.1 281.2,821.1 273.2,775.4 l -43.6,7.7 c 8.7,49.4 25.3,98.2 50.5,144.7 100.3,185 306,277.2 502.9,242.7 z"
   id="path285" /><path
   class="st10"
   d="m 798.2,369.4 c 88.3,26.2 161.1,85.3 205,166.2 18,33.1 30.2,68.3 36.6,104.4 l 11.8,-2.1 C 1045.1,601 1032.7,564.5 1013.9,529.8 938.9,391.5 785.1,322.5 638.1,348.3 l 2.1,11.8 c 51.9,-9.1 105.8,-6.2 158,9.3 z"
   id="path287" /><path
   class="st10"
   d="m 762,1051.6 -2.1,-11.8 C 707.8,1049 654,1046.1 601.8,1030.6 513.5,1004.4 440.7,945.3 396.8,864.4 378.8,831.3 366.6,796 360.2,760 l -11.8,2.1 c 6.5,36.9 18.9,73.4 37.7,108.1 75,138.2 228.8,207.2 375.9,181.4 z"
   id="path289" /><path
   class="st10"
   d="m 641.5,368.4 1.9,10.7 c 49.2,-8.7 100.1,-5.9 149.3,8.7 83.4,24.8 152.2,80.5 193.6,157 17,31.3 28.5,64.6 34.6,98.6 l 10.7,-1.9 C 1025.5,606.7 1013.8,572.3 996,539.5 925.3,409 780.3,344 641.5,368.4 Z"
   id="path291" /><path
   class="st10"
   d="m 747.1,1183.6 c -62.5,6.1 -124.9,0 -185.4,-17.9 -60.5,-18 -116,-46.9 -165.1,-86.1 -50.8,-40.6 -92.4,-90.4 -123.7,-148 -25.2,-46.5 -42.4,-95.8 -51.5,-147.1 l -20.1,3.5 c 9.2,52.4 26.8,104.1 53.5,153.4 106.3,196.2 324.4,294 533,257.4 l -3.5,-20.1 c -12.2,2 -24.7,3.7 -37.2,4.9 z"
   id="path293" /><path
   class="st10"
   d="m 612.1,201.3 3.5,20.1 c 12.3,-2.2 24.8,-3.9 37.3,-5.1 62.5,-6.1 124.9,0 185.4,17.9 60.5,18 116,46.9 165.1,86.1 50.8,40.6 92.4,90.4 123.7,148 25.2,46.5 42.4,95.8 51.5,147.1 l 20.1,-3.5 C 1189.5,559.5 1171.9,507.8 1145.2,458.5 1038.8,262.5 820.7,164.7 612.1,201.3 Z"
   id="path295" /><path
   class="st7"
   d="m 979.2,548.6 c 16.7,30.9 27.8,63.4 33.6,96.2 l 8.1,-1.4 c -6,-34.1 -17.6,-67.3 -34.6,-98.6 C 944.8,468.3 876.1,412.5 792.7,387.8 743.4,373.2 692.5,370.4 643.4,379.1 l 1.4,8.1 c 130.9,-23 267.7,38.3 334.4,161.4 z"
   id="path297"
   style="fill:#3c3839;fill-opacity:1" /><path
   class="st7"
   d="M 420.8,851.4 C 404.1,820.5 393,788 387.2,755.2 l -8.1,1.4 c 6,34.1 17.6,67.3 34.6,98.6 41.5,76.5 110.2,132.3 193.6,157 49.3,14.6 100.2,17.4 149.3,8.7 l -1.4,-8.1 c -130.9,23 -267.7,-38.3 -334.4,-161.4 z"
   id="path299"
   style="fill:#3c3839;fill-opacity:1" /><path
   class="st7"
   d="m 996,539.5 c 17.8,32.8 29.5,67.2 35.6,102 l 8.1,-1.4 c -6.4,-36.1 -18.6,-71.3 -36.6,-104.4 -43.9,-81 -116.7,-140 -205,-166.2 C 745.9,354 692.1,351.1 640,360.3 l 1.4,8.1 C 780.3,344 925.3,409 996,539.5 Z"
   id="path301"
   style="fill:#3c3839;fill-opacity:1" /><path
   class="st7"
   d="m 404,860.5 c -17.8,-32.8 -29.5,-67.2 -35.6,-102 l -8.1,1.4 c 6.4,36.1 18.6,71.3 36.6,104.4 43.9,81 116.7,140 205,166.2 52.2,15.5 106,18.4 158.1,9.2 l -1.4,-8.1 C 619.7,1056 474.7,991 404,860.5 Z"
   id="path303"
   style="fill:#3c3839;fill-opacity:1" /><path
   class="st7"
   d="m 1013.8,529.9 c 18.8,34.7 31.3,71.2 37.7,108.1 l 8.1,-1.4 C 1052.8,598.4 1039.9,561.1 1020.9,526 974.4,440.3 897.4,377.8 803.9,350 748.7,333.6 691.7,330.5 636.5,340.3 l 1.4,8.1 c 147.2,-25.8 301,43.1 375.9,181.5 z"
   id="path305"
   style="fill:#3c3839;fill-opacity:1" /><path
   class="st7"
   d="M 386.2,870.1 C 367.4,835.4 354.9,798.9 348.5,762 l -8.1,1.4 c 6.8,38.2 19.7,75.5 38.7,110.6 46.5,85.7 123.5,148.2 217,176 55.2,16.4 112.2,19.5 167.4,9.7 l -1.4,-8.1 c -147.2,25.8 -301,-43.2 -375.9,-181.5 z"
   id="path307"
   style="fill:#3c3839;fill-opacity:1" /><path
   class="st7"
   d="m 367.3,880.3 c -20,-36.8 -33.1,-75.5 -40,-114.6 l -8.1,1.4 c 7.2,40.4 20.9,79.9 41,117 49.2,90.9 130.8,157 229.8,186.4 58.5,17.4 118.8,20.6 177.2,10.3 l -1.4,-8.1 c -156,27.4 -319,-45.7 -398.5,-192.4 z"
   id="path309"
   style="fill:#3c3839;fill-opacity:1" /><path
   class="st7"
   d="m 1032.7,519.7 c 19.9,36.8 33.1,75.5 40,114.6 l 8.1,-1.4 c -7.2,-40.4 -20.9,-79.9 -41,-117 C 990.6,425 909,358.9 810,329.5 751.5,312.1 691.2,308.8 632.8,319.2 l 1.4,8.1 c 156,-27.4 319,45.7 398.5,192.4 z"
   id="path311"
   style="fill:#3c3839;fill-opacity:1" /><path
   class="st7"
   d="m 1052.7,508.8 c 21.1,39 35.1,80 42.4,121.5 l 8.1,-1.4 c -7.6,-43.2 -22.1,-84.8 -43.3,-123.9 -26.3,-48.6 -61.4,-90.5 -104.2,-124.7 -41.3,-33 -88.1,-57.4 -139.1,-72.6 -51,-15.1 -103.5,-20.2 -156.2,-15.1 -10.6,1 -21,2.5 -31.4,4.3 l 1.4,8.1 c 165.2,-29.1 338,48.4 422.3,203.8 z"
   id="path313"
   style="fill:#3c3839;fill-opacity:1" /><path
   class="st7"
   d="m 347.3,891.2 c -21.1,-39 -35.1,-80 -42.4,-121.5 l -8.1,1.4 c 7.6,43.2 22.1,84.8 43.3,123.9 26.3,48.6 61.4,90.5 104.2,124.7 41.3,33 88.1,57.4 139.1,72.6 50.9,15.1 103.5,20.2 156.2,15.1 10.6,-1 21,-2.5 31.4,-4.3 l -1.4,-8.1 c -165.2,29.1 -338,-48.4 -422.3,-203.8 z"
   id="path315"
   style="fill:#3c3839;fill-opacity:1" /><path
   class="st7"
   d="m 1073.8,497.4 c 22.4,41.4 37.2,84.8 45,128.8 l 8.1,-1.4 c -8,-45.8 -23.4,-89.8 -45.9,-131.2 -27.9,-51.4 -65,-95.9 -110.3,-132 -43.8,-35 -93.3,-60.8 -147.3,-76.8 -53.9,-16 -109.6,-21.4 -165.3,-16 -11.2,1.1 -22.3,2.6 -33.3,4.5 l 1.4,8.1 c 175.1,-30.9 358.3,51.2 447.6,216 z"
   id="path317"
   style="fill:#3c3839;fill-opacity:1" /><path
   class="st7"
   d="M 326.2,902.6 C 303.8,861.2 289,817.8 281.2,773.8 l -8.1,1.4 c 8,45.8 23.4,89.8 45.9,131.2 27.9,51.4 65,95.9 110.3,132 43.8,35 93.3,60.8 147.3,76.8 53.9,16 109.6,21.4 165.3,16 11.2,-1.1 22.3,-2.6 33.3,-4.5 l -1.4,-8.1 c -175.1,30.9 -358.3,-51.2 -447.6,-216 z"
   id="path319"
   style="fill:#3c3839;fill-opacity:1" /><path
   class="st7"
   d="m 1120,472.3 c 25.2,46.5 41.8,95.3 50.5,144.7 l 8.1,-1.4 c -9,-51.3 -26.3,-100.6 -51.5,-147.1 -31.3,-57.7 -72.9,-107.5 -123.7,-148 -49.1,-39.2 -104.6,-68.2 -165.1,-86.1 -60.5,-18 -122.8,-24 -185.4,-17.9 -12.5,1.2 -25,2.9 -37.3,5.1 l 1.4,8.1 c 196.9,-34.7 402.6,57.5 503,242.6 z"
   id="path321"
   style="fill:#3c3839;fill-opacity:1" /><path
   class="st7"
   d="M 280,927.6 C 254.8,881.1 238.2,832.3 229.5,782.9 l -8.1,1.4 c 9,51.3 26.3,100.6 51.5,147.1 31.3,57.7 72.9,107.5 123.7,148 49.1,39.2 104.6,68.2 165.1,86.1 60.5,18 122.8,24 185.4,17.9 12.5,-1.2 25,-2.9 37.3,-5.1 l -1.4,-8.1 C 586.1,1205 380.4,1112.8 280,927.6 Z"
   id="path323"
   style="fill:#3c3839;fill-opacity:1" /><path
   class="st7"
   d="m 1145.1,458.7 c 26.7,49.2 44.3,101 53.5,153.4 l 8.1,-1.4 c -9.6,-54.3 -27.8,-106.6 -54.5,-155.8 -33.1,-61 -77.2,-113.8 -131,-156.8 -52,-41.5 -110.8,-72.2 -174.8,-91.2 -64,-19 -130.1,-25.4 -196.3,-19 -13.3,1.3 -26.5,3.1 -39.5,5.4 l 1.4,8.1 c 208.7,-36.7 426.8,61.1 533.1,257.3 z"
   id="path325"
   style="fill:#3c3839;fill-opacity:1" /><path
   class="st7"
   d="m 254.9,941.3 c -26.7,-49.2 -44.3,-101 -53.5,-153.4 l -8.1,1.4 c 9.6,54.3 27.8,106.6 54.5,155.8 33.1,61.1 77.2,113.8 131,156.8 52,41.5 110.8,72.2 174.8,91.2 64,19 130.1,25.4 196.3,19 13.3,-1.3 26.5,-3.1 39.5,-5.4 l -1.4,-8.1 C 579.3,1235.3 361.2,1137.5 254.9,941.3 Z"
   id="path327"
   style="fill:#3c3839;fill-opacity:1" /><path
   class="st10"
   d="m 906.5,1080.9 c 51.4,-27.9 95.9,-65 132,-110.3 35,-43.8 60.8,-93.3 76.8,-147.3 16,-53.9 21.4,-109.6 16,-165.3 -1.1,-11.2 -2.6,-22.3 -4.5,-33.3 l 17,-3 C 1135.6,575.1 1119.9,529 1096.2,485.2 1001.5,310.6 807.4,223.5 621.7,256.1 l 3,17 c -45.8,8 -89.8,23.4 -131.2,45.9 -51.4,27.9 -95.9,65 -132.1,110.3 -35,43.8 -60.8,93.3 -76.8,147.3 -16,53.9 -21.4,109.6 -16,165.3 1.1,11.2 2.6,22.3 4.5,33.3 l -17,3 c 8.2,46.6 23.9,92.7 47.7,136.5 94.7,174.6 288.8,261.7 474.5,229.1 l -3,-17 c 45.7,-8 89.7,-23.4 131.2,-45.9 z"
   id="path329" /><path
   class="st7"
   d="m 1096.2,485.2 c 23.8,43.8 39.5,89.9 47.6,136.5 l 8.1,-1.4 c -8.5,-48.4 -24.8,-95 -48.6,-138.9 -29.5,-54.5 -68.8,-101.5 -116.8,-139.8 -46.4,-37 -98.8,-64.4 -155.9,-81.4 -57.1,-17 -116,-22.7 -175.1,-16.9 -11.8,1.1 -23.6,2.8 -35.2,4.8 l 1.4,8.1 c 185.7,-32.7 379.9,54.4 474.5,229 z"
   id="path331"
   style="fill:#3c3839;fill-opacity:1" /><path
   class="st7"
   d="M 778.3,1143.9 C 592.6,1176.5 398.5,1089.4 303.8,914.8 280,871 264.3,824.9 256.1,778.3 l -8.1,1.4 c 8.5,48.4 24.8,95 48.6,138.9 29.5,54.4 68.8,101.5 116.8,139.8 46.4,37 98.8,64.4 155.9,81.4 57.1,17 116,22.7 175.1,16.9 11.8,-1.1 23.6,-2.8 35.2,-4.8 z"
   id="path333"
   style="fill:#3c3839;fill-opacity:1" /><g
   id="g371">
			<path
   class="st11"
   d="m 544.8,413.6 c -76.5,41.5 -132.3,110.2 -157,193.6 -14.6,49.3 -17.4,100.2 -8.7,149.3 l 8.1,-1.4 c -23,-130.9 38.4,-267.7 161.5,-334.4 30.9,-16.7 63.4,-27.8 96.2,-33.6 l -1.4,-8.1 c -34.2,6.1 -67.4,17.7 -98.7,34.6 z"
   id="path335"
   style="fill:#1e2122;fill-opacity:1" />
			<path
   class="st11"
   d="m 539.5,404 c 32.8,-17.8 67.2,-29.5 102,-35.6 l -1.4,-8.1 c -36.1,6.4 -71.3,18.6 -104.4,36.6 -81,43.9 -140,116.7 -166.2,205 -15.5,52.2 -18.4,106 -9.2,158.1 l 8.1,-1.4 C 344,619.7 409,474.7 539.5,404 Z"
   id="path337"
   style="fill:#1e2122;fill-opacity:1" />
			<path
   class="st11"
   d="m 526,379 c -85.7,46.5 -148.2,123.5 -176,217 -16.4,55.2 -19.5,112.2 -9.7,167.4 l 8.1,-1.4 C 322.6,614.9 391.5,461.2 529.9,386.2 564.6,367.4 601.1,354.9 638,348.5 l -1.4,-8.1 C 598.4,347.1 561.1,360 526,379 Z"
   id="path339"
   style="fill:#1e2122;fill-opacity:1" />
			<path
   class="st11"
   d="m 519.7,367.3 c 36.8,-20 75.5,-33.1 114.6,-40 l -1.4,-8.1 c -40.4,7.2 -79.9,20.9 -117,41 C 425,409.4 358.9,491 329.5,590 312.1,648.5 308.8,708.8 319.2,767.2 l 8.1,-1.4 c -27.4,-156 45.7,-319 192.4,-398.5 z"
   id="path341"
   style="fill:#1e2122;fill-opacity:1" />
			<path
   class="st11"
   d="m 380.3,444.4 c -33,41.3 -57.4,88.1 -72.6,139.1 -15.1,50.9 -20.2,103.5 -15.1,156.2 1,10.6 2.5,21 4.3,31.4 l 8.1,-1.4 c -29,-165.3 48.5,-338.1 203.9,-422.3 39,-21.1 80,-35.1 121.5,-42.4 l -1.4,-8.1 c -43.2,7.6 -84.8,22.1 -123.9,43.3 -48.7,26.3 -90.7,61.4 -124.8,104.2 z"
   id="path343"
   style="fill:#1e2122;fill-opacity:1" />
			<path
   class="st11"
   d="m 497.4,326.2 c 41.4,-22.4 84.8,-37.2 128.8,-45 l -1.4,-8.1 c -45.8,8 -89.8,23.4 -131.2,45.9 -51.4,27.9 -95.9,65 -132.1,110.3 -35,43.8 -60.8,93.3 -76.8,147.3 -16,53.9 -21.4,109.6 -16,165.3 1.1,11.2 2.6,22.3 4.5,33.3 l 8.1,-1.4 C 250.5,598.7 332.6,415.5 497.4,326.2 Z"
   id="path345"
   style="fill:#1d2021;fill-opacity:1" />
			<path
   class="st11"
   d="m 320.4,396.6 c -39.2,49.1 -68.2,104.6 -86.1,165.1 -18,60.5 -24,122.8 -17.9,185.4 1.2,12.5 2.9,25 5.1,37.3 l 8.1,-1.4 C 195,586.1 287.2,380.4 472.4,280 c 46.5,-25.2 95.3,-41.8 144.7,-50.5 l -1.4,-8.1 c -51.3,9 -100.6,26.3 -147.1,51.5 -57.8,31.3 -107.6,72.9 -148.2,123.7 z"
   id="path347"
   style="fill:#1e2122;fill-opacity:1" />
			<path
   class="st11"
   d="m 458.7,254.9 c 49.2,-26.7 101,-44.3 153.4,-53.5 l -1.4,-8.1 c -54.3,9.6 -106.6,27.8 -155.8,54.5 -61,33.1 -113.8,77.2 -156.8,131 -41.5,52 -72.2,110.8 -91.2,174.8 -19,64 -25.4,130.1 -19,196.3 1.3,13.3 3.1,26.5 5.4,39.5 l 8.1,-1.4 C 164.7,579.3 262.5,361.2 458.7,254.9 Z"
   id="path349"
   style="fill:#1d2021;fill-opacity:1" />
			<path
   class="st11"
   d="M 485.2,303.8 C 529,280 575.1,264.3 621.7,256.1 l -1.4,-8.1 c -48.4,8.5 -95,24.8 -138.9,48.6 -54.4,29.5 -101.5,68.8 -139.8,116.8 -37,46.4 -64.4,98.8 -81.4,155.9 -17,57.1 -22.7,116 -16.9,175.1 1.1,11.8 2.8,23.6 4.8,35.2 l 8.1,-1.4 c -32.7,-185.6 54.4,-379.8 229,-474.4 z"
   id="path351"
   style="fill:#1e2122;fill-opacity:1" />
			<path
   class="st11"
   d="m 914.8,1096.2 c -43.8,23.8 -89.9,39.5 -136.5,47.7 l 1.4,8.1 c 48.4,-8.5 95,-24.8 138.9,-48.6 54.4,-29.5 101.5,-68.8 139.8,-116.8 37,-46.4 64.4,-98.8 81.4,-155.9 17,-57.1 22.7,-116 16.9,-175.1 -1.1,-11.8 -2.8,-23.6 -4.8,-35.2 l -8.1,1.4 c 32.7,185.6 -54.4,379.8 -229,474.4 z"
   id="path353"
   style="fill:#1d2021;fill-opacity:1" />
			<path
   class="st11"
   d="m 851.4,979.2 c -30.9,16.7 -63.4,27.8 -96.2,33.6 l 1.4,8.1 c 34.1,-6 67.3,-17.6 98.6,-34.6 76.5,-41.5 132.3,-110.2 157,-193.6 14.6,-49.3 17.4,-100.2 8.7,-149.3 l -8.1,1.4 c 23,130.9 -38.3,267.7 -161.4,334.4 z"
   id="path355"
   style="fill:#1d2021;fill-opacity:1" />
			<path
   class="st11"
   d="m 864.3,1003.2 c 81,-43.9 140,-116.7 166.2,-205 15.5,-52.2 18.4,-106 9.2,-158.1 l -8.1,1.4 C 1056,780.3 991,925.3 860.5,996 c -32.8,17.8 -67.2,29.5 -102,35.6 l 1.4,8.1 c 36.1,-6.3 71.3,-18.6 104.4,-36.5 z"
   id="path357"
   style="fill:#1d2021;fill-opacity:1" />
			<path
   class="st11"
   d="m 870.1,1013.8 c -34.7,18.8 -71.2,31.3 -108.1,37.7 l 1.4,8.1 c 38.2,-6.8 75.5,-19.7 110.6,-38.7 85.7,-46.5 148.2,-123.5 176,-217 16.4,-55.2 19.5,-112.2 9.7,-167.4 l -8.1,1.4 c 25.8,147.2 -43.1,300.9 -181.5,375.9 z"
   id="path359"
   style="fill:#1d2021;fill-opacity:1" />
			<path
   class="st11"
   d="M 884.2,1039.8 C 975,990.6 1041.1,909 1070.5,810 c 17.4,-58.5 20.6,-118.8 10.3,-177.2 l -8.1,1.4 c 27.4,155.9 -45.7,318.9 -192.4,398.4 -36.8,20 -75.5,33.1 -114.6,40 l 1.4,8.1 c 40.5,-7 79.9,-20.8 117.1,-40.9 z"
   id="path361"
   style="fill:#1d2021;fill-opacity:1" />
			<path
   class="st11"
   d="m 891.2,1052.7 c -39,21.1 -80,35.1 -121.5,42.4 l 1.4,8.1 c 43.2,-7.6 84.8,-22.1 123.9,-43.3 48.6,-26.3 90.5,-61.4 124.7,-104.2 33,-41.3 57.4,-88.1 72.6,-139.1 15.1,-50.9 20.2,-103.5 15.1,-156.1 -1,-10.6 -2.5,-21 -4.3,-31.4 l -8.1,1.4 c 29.1,165.1 -48.4,337.9 -203.8,422.2 z"
   id="path363"
   style="fill:#1d2021;fill-opacity:1" />
			<path
   class="st11"
   d="m 1038.5,970.6 c 35,-43.8 60.8,-93.3 76.8,-147.3 16,-53.9 21.4,-109.6 16,-165.3 -1.1,-11.2 -2.6,-22.3 -4.5,-33.3 l -8.1,1.4 c 30.7,175.2 -51.4,358.3 -216.1,447.7 -41.4,22.4 -84.8,37.2 -128.8,45 l 1.4,8.1 c 45.8,-8 89.8,-23.4 131.2,-45.9 51.5,-27.9 95.9,-65.1 132.1,-110.4 z"
   id="path365"
   style="fill:#1d2021;fill-opacity:1" />
			<path
   class="st11"
   d="m 927.6,1120 c -46.5,25.2 -95.3,41.8 -144.7,50.5 l 1.4,8.1 c 51.3,-9 100.6,-26.3 147.1,-51.5 57.7,-31.3 107.5,-72.9 148,-123.7 39.2,-49.1 68.2,-104.6 86.1,-165.1 18,-60.5 24,-122.8 17.9,-185.4 -1.2,-12.5 -2.9,-25 -5.1,-37.3 l -8.1,1.4 c 34.8,196.9 -57.4,402.6 -242.6,503 z"
   id="path367"
   style="fill:#1d2021;fill-opacity:1" />
			<path
   class="st11"
   d="m 1101.9,1021.3 c 41.5,-52 72.2,-110.8 91.2,-174.8 19,-64 25.4,-130.1 19,-196.3 -1.3,-13.3 -3.1,-26.5 -5.4,-39.5 l -8.1,1.4 c 36.6,208.6 -61.2,426.7 -257.4,533 -49.2,26.7 -101,44.3 -153.4,53.5 l 1.4,8.1 c 54.3,-9.6 106.6,-27.8 155.8,-54.5 61.2,-33.1 113.9,-77.1 156.9,-130.9 z"
   id="path369"
   style="fill:#1d2021;fill-opacity:1" />
		</g>
</svg>
